<?xml version="1.0" encoding="UTF-8"?>
<svg xmlns="http://www.w3.org/2000/svg" xmlns:xlink="http://www.w3.org/1999/xlink" width="595.2756pt" height="841.8898pt" viewBox="0 0 595.2756 841.8898" version="1.1">
<g id="surface1">
<path style=" stroke:none;fill-rule:evenodd;fill:rgb(100%,80.000305%,0%);fill-opacity:1;" d="M 452.035156 514.085938 C 458.667969 528.277344 476.085938 535.253906 491.894531 529.671875 C 493.273438 529.183594 494.597656 528.613281 495.863281 527.972656 C 494.738281 537.644531 487.648438 545.648438 478.128906 548.589844 C 465.273438 552.566406 452.425781 545.085938 449.523438 531.945313 C 448.167969 525.800781 449.21875 519.484375 452.035156 514.085938 Z M 423.574219 578.542969 C 419.003906 553.144531 404.59375 531.882813 384.789063 519.914063 C 409.753906 523.675781 428.835938 546.113281 430.824219 574.207031 C 428.507813 575.832031 426.085938 577.285156 423.574219 578.542969 Z M 297.636719 582.683594 C 273.886719 591.816406 250.777344 600.632813 226.570313 608.761719 C 208.878906 614.703125 189.949219 622.503906 171.46875 621.5625 C 156.65625 620.8125 146.136719 605.925781 138.035156 596.777344 C 134.808594 593.132813 127.015625 597.859375 127.390625 608.296875 C 123.75 604.601563 119.167969 595.980469 118.890625 589.941406 C 118.515625 581.804688 127.015625 576.523438 135.375 577.042969 C 153.1875 578.148438 164.652344 592.894531 181.140625 595.207031 C 197.871094 597.546875 214.589844 595.121094 231.242188 592.308594 C 253.859375 588.488281 275.449219 580.695313 297.636719 574.886719 C 319.828125 580.695313 341.417969 588.488281 364.03125 592.308594 C 380.6875 595.121094 397.40625 597.546875 414.132813 595.207031 C 430.625 592.894531 442.089844 578.148438 459.902344 577.042969 C 468.261719 576.523438 476.761719 581.804688 476.386719 589.941406 C 476.105469 595.980469 471.527344 604.601563 467.886719 608.296875 C 468.261719 597.859375 460.46875 593.132813 457.242188 596.777344 C 449.140625 605.925781 438.617188 620.8125 423.808594 621.5625 C 405.324219 622.503906 386.398438 614.703125 368.703125 608.761719 C 344.5 600.632813 321.386719 591.816406 297.636719 582.683594 Z M 313.628906 611.101563 C 313.640625 611.316406 313.648438 611.53125 313.648438 611.75 C 313.648438 619.039063 306.457031 624.984375 297.636719 624.984375 C 288.820313 624.984375 281.625 619.039063 281.625 611.75 C 281.625 611.53125 281.632813 611.316406 281.644531 611.101563 C 286.074219 612.832031 291.625 613.867188 297.636719 613.867188 C 303.652344 613.867188 309.199219 612.832031 313.628906 611.101563 Z M 319.414063 639.085938 C 316.902344 646.03125 308.082031 651.183594 297.636719 651.183594 C 287.191406 651.183594 278.375 646.03125 275.859375 639.085938 C 281.980469 641.035156 289.507813 642.1875 297.636719 642.1875 C 305.765625 642.1875 313.296875 641.035156 319.414063 639.085938 Z M 297.636719 590.046875 C 318.628906 590.046875 335.75 609.367188 335.75 633.054688 C 335.75 656.742188 318.628906 676.0625 297.636719 676.0625 C 276.648438 676.0625 259.527344 656.742188 259.527344 633.054688 C 259.527344 609.367188 276.648438 590.046875 297.636719 590.046875 Z M 255.1875 602.695313 C 253.917969 604.902344 252.566406 607.097656 251.125 609.265625 C 231.136719 639.398438 202.441406 653.957031 187.25 641.671875 C 183.554688 638.683594 180.992188 634.371094 179.511719 629.125 C 189.804688 629.449219 201.117188 628.121094 212.683594 624.914063 C 229.78125 620.175781 244.578125 612.132813 255.1875 602.695313 Z M 340.085938 602.695313 C 350.699219 612.132813 365.492188 620.175781 382.589844 624.914063 C 394.15625 628.121094 405.472656 629.449219 415.761719 629.125 C 414.285156 634.371094 411.722656 638.683594 408.027344 641.671875 C 392.832031 653.957031 364.140625 639.398438 344.148438 609.265625 C 342.710938 607.097656 341.359375 604.902344 340.085938 602.695313 Z M 335.882813 658.546875 C 339.820313 651.070313 342.082031 642.351563 342.082031 633.054688 C 342.082031 628.105469 341.4375 623.320313 340.242188 618.796875 C 355.132813 635.675781 371.675781 647.136719 386.648438 651.546875 C 379.398438 657.246094 367.464844 660.976563 354.011719 660.976563 C 347.492188 660.976563 341.332031 660.097656 335.882813 658.546875 Z M 259.390625 658.546875 C 253.945313 660.097656 247.785156 660.976563 241.265625 660.976563 C 227.8125 660.976563 215.875 657.246094 208.628906 651.546875 C 223.601563 647.136719 240.144531 635.675781 255.03125 618.796875 C 253.839844 623.320313 253.195313 628.105469 253.195313 633.054688 C 253.195313 642.351563 255.457031 651.070313 259.390625 658.546875 Z M 297.636719 565.5 C 261.496094 580.878906 192.832031 605.925781 157.941406 578.261719 C 154.144531 558.226563 165.449219 538.628906 183.5625 524.988281 C 198.59375 513.671875 218.101563 507.746094 235.570313 507.417969 C 247.074219 507.203125 266.664063 507.351563 265.441406 523.910156 C 262.542969 520.050781 256.53125 519.082031 251.820313 519.449219 C 237.507813 520.566406 228.617188 531.558594 218.808594 542.234375 C 210.746094 551.007813 203.59375 558.738281 200.492188 570.242188 C 199.367188 574.414063 203.484375 583.125 207.800781 583.289063 C 223.007813 583.871094 248.425781 576.226563 261.777344 570.441406 C 271.058594 566.417969 277.121094 559.988281 282.167969 550.765625 C 287.828125 540.4375 292.480469 529.585938 297.636719 518.996094 C 302.792969 529.585938 307.449219 540.4375 313.105469 550.765625 C 318.15625 559.988281 324.214844 566.417969 333.496094 570.441406 C 346.847656 576.226563 372.265625 583.871094 387.472656 583.289063 C 391.789063 583.125 395.90625 574.414063 394.785156 570.242188 C 391.683594 558.738281 384.53125 551.007813 376.46875 542.234375 C 366.660156 531.558594 357.765625 520.566406 343.457031 519.449219 C 338.742188 519.082031 332.734375 520.050781 329.835938 523.910156 C 328.613281 507.351563 348.199219 507.203125 359.707031 507.417969 C 377.175781 507.746094 396.683594 513.671875 411.710938 524.988281 C 429.828125 538.628906 441.128906 558.226563 437.335938 578.261719 C 402.441406 605.925781 333.78125 580.878906 297.636719 565.5 Z M 400.191406 584.164063 C 402.0625 578.886719 402.484375 572.257813 400.804688 566.246094 C 397.40625 554.058594 389.378906 545.152344 381.113281 534.261719 C 379.15625 530.558594 379.054688 527.550781 380.003906 525.941406 C 398.695313 537.476563 412.480469 557.335938 417.574219 581.109375 C 412.058594 583.089844 406.214844 584.164063 400.191406 584.164063 Z M 195.085938 584.164063 C 189.058594 584.164063 183.21875 583.089844 177.699219 581.109375 C 182.792969 557.335938 196.582031 537.476563 215.273438 525.941406 C 216.21875 527.550781 216.121094 530.558594 214.164063 534.261719 C 205.894531 545.152344 197.867188 554.058594 194.46875 566.246094 C 192.792969 572.257813 193.214844 578.886719 195.085938 584.164063 Z M 171.699219 578.542969 C 169.191406 577.285156 166.769531 575.832031 164.453125 574.207031 C 166.4375 546.113281 185.519531 523.675781 210.488281 519.914063 C 190.679688 531.882813 176.273438 553.144531 171.699219 578.542969 Z M 288.214844 441.023438 C 292.3125 449.519531 294.605469 458.980469 294.605469 468.945313 C 294.605469 478.914063 292.308594 488.378906 288.210938 496.875 C 280.105469 488.484375 275.527344 478.992188 275.527344 468.949219 C 275.53125 458.90625 280.109375 449.414063 288.214844 441.023438 Z M 307.0625 441.023438 C 315.167969 449.414063 319.742188 458.90625 319.746094 468.949219 C 319.746094 478.992188 315.171875 488.484375 307.0625 496.875 C 302.964844 488.378906 300.671875 478.914063 300.671875 468.945313 C 300.671875 458.980469 302.960938 449.519531 307.0625 441.023438 Z M 297.636719 314.058594 C 306.984375 314.058594 314.609375 323.316406 314.609375 347.578125 C 314.609375 371.839844 306.984375 402.15625 297.636719 402.15625 C 288.289063 402.15625 280.664063 371.839844 280.664063 347.578125 C 280.664063 323.316406 288.289063 314.058594 297.636719 314.058594 Z M 297.636719 411.019531 C 301.933594 411.019531 305.441406 414.527344 305.441406 418.824219 C 305.441406 423.121094 301.933594 426.628906 297.636719 426.628906 C 293.339844 426.628906 289.835938 423.121094 289.835938 418.824219 C 289.835938 414.527344 293.339844 411.019531 297.636719 411.019531 Z M 315.230469 308.296875 C 311.054688 292.90625 308.636719 274.757813 308.636719 255.355469 C 308.636719 235.953125 311.054688 217.804688 315.230469 202.410156 C 330.976563 211.121094 342.082031 231.59375 342.082031 255.355469 C 342.082031 279.117188 330.976563 299.585938 315.230469 308.296875 Z M 275.589844 322.261719 C 243.382813 312.183594 218.992188 280.875 221.734375 244.863281 C 225.011719 201.785156 272.949219 192.230469 297.636719 165.828125 C 322.328125 192.230469 370.261719 201.785156 373.539063 244.863281 C 376.28125 280.875 351.894531 312.183594 319.691406 322.261719 C 320.683594 327.414063 321.28125 333.421875 321.414063 340.363281 C 329.09375 327.210938 355.980469 310.277344 374.53125 297.214844 C 389.683594 286.546875 398.332031 270.675781 398.332031 255.476563 C 398.332031 241.367188 391.246094 228.589844 379.882813 219.464844 C 386.621094 218.238281 395.640625 218.289063 401.421875 218.589844 C 431.871094 220.167969 456.652344 243.738281 456.652344 273.472656 C 456.652344 303.210938 431.265625 328.207031 400.773438 328.207031 C 382.433594 328.207031 361.183594 321.875 342.15625 336.640625 C 334.675781 342.445313 318.675781 368.246094 311.957031 391.929688 C 310.019531 398.765625 309.042969 405.632813 309.296875 411.820313 C 309.613281 419.542969 311.605469 428.296875 318.90625 432.582031 C 321.976563 414.351563 330.960938 397.46875 337.070313 385.269531 C 343.914063 371.617188 354.851563 359.34375 368.925781 353.417969 C 382.703125 347.613281 399.527344 348.441406 413.773438 352.964844 C 432.039063 358.765625 455.015625 372.457031 476.617188 361.550781 C 489.863281 354.863281 500.539063 343.191406 506.113281 328.308594 C 507.117188 325.628906 507.917969 322.917969 508.53125 320.199219 C 522.488281 334.78125 526.097656 355.902344 518.496094 373.851563 C 513.847656 384.828125 505.441406 392.640625 495.359375 396.710938 C 467.648438 407.902344 448.539063 396.03125 435.199219 382.589844 C 420.542969 367.8125 404.996094 359.585938 388.171875 360.226563 C 360.679688 361.273438 343.84375 391.441406 337.269531 418.648438 C 345.675781 406.21875 356.792969 396.105469 367.28125 390.929688 C 383.144531 383.097656 402.023438 385.421875 416.789063 396.945313 C 437.414063 413.039063 452.210938 442.183594 475.703125 452.597656 C 493.359375 460.425781 514.8125 460.507813 530.804688 443.707031 C 532.222656 473.515625 506.570313 485.957031 491.261719 485.824219 C 480.457031 485.730469 469.894531 478.859375 461.285156 469.472656 C 445.558594 452.320313 434.136719 431.664063 420.152344 412.8125 C 413.039063 403.230469 400.597656 396.023438 385.390625 395.863281 C 376.746094 395.773438 359.636719 404.699219 348.953125 421.785156 C 343.574219 430.394531 338.164063 439.515625 334.082031 447.332031 L 340.167969 473.097656 L 354.359375 467.746094 L 364.03125 488.667969 C 368.289063 487.894531 373.308594 481.796875 374.101563 475.550781 C 375.871094 461.628906 371.726563 447.066406 375.367188 433.488281 C 378.035156 423.523438 385.9375 420.847656 392.40625 422.308594 C 401.152344 424.285156 403.160156 433.019531 397.550781 442.890625 C 397.71875 439.496094 394.402344 435.269531 391.066406 435.488281 C 385.84375 435.828125 385.269531 444.300781 385.648438 448.789063 C 386.71875 461.347656 398.199219 468.824219 398.417969 483.25 C 398.644531 498.261719 389.386719 505.695313 375.78125 504.585938 C 362.449219 503.503906 348.710938 496.703125 335.070313 497.058594 C 326.707031 497.273438 316.246094 501.296875 316.164063 513.078125 C 316.007813 535.996094 347.851563 527.570313 363.542969 533.699219 C 363.226563 543.167969 354.804688 548.425781 336.128906 544.429688 C 337.535156 552.152344 335.894531 558.90625 331.265625 559.746094 C 325.535156 560.785156 319.925781 554.246094 317.691406 550.027344 C 312.464844 540.144531 310.757813 526.964844 305.488281 514.546875 C 303.894531 510.785156 301.785156 504.292969 297.636719 504.292969 C 293.488281 504.292969 291.382813 510.785156 289.785156 514.546875 C 284.515625 526.964844 282.8125 540.144531 277.582031 550.027344 C 275.351563 554.246094 269.742188 560.785156 264.011719 559.746094 C 259.382813 558.90625 257.742188 552.152344 259.144531 544.429688 C 240.472656 548.425781 232.050781 543.167969 231.734375 533.699219 C 247.421875 527.570313 279.269531 535.996094 279.109375 513.078125 C 279.03125 501.296875 268.570313 497.273438 260.207031 497.058594 C 246.5625 496.703125 232.824219 503.503906 219.492188 504.585938 C 205.890625 505.695313 196.632813 498.261719 196.859375 483.25 C 197.078125 468.824219 208.558594 461.347656 209.625 448.789063 C 210.007813 444.300781 209.429688 435.828125 204.210938 435.488281 C 200.875 435.269531 197.554688 439.496094 197.722656 442.890625 C 192.117188 433.019531 194.121094 424.285156 202.867188 422.308594 C 209.339844 420.847656 217.242188 423.523438 219.910156 433.488281 C 223.550781 447.066406 219.402344 461.628906 221.175781 475.550781 C 221.96875 481.796875 226.988281 487.894531 231.242188 488.667969 L 240.914063 467.746094 L 255.109375 473.097656 L 261.191406 447.328125 C 257.113281 439.515625 251.703125 430.394531 246.320313 421.785156 C 235.640625 404.699219 218.53125 395.773438 209.882813 395.863281 C 194.679688 396.023438 182.234375 403.230469 175.125 412.8125 C 161.136719 431.664063 149.71875 452.320313 133.988281 469.472656 C 125.378906 478.859375 114.820313 485.730469 104.015625 485.824219 C 88.707031 485.957031 63.054688 473.515625 64.46875 443.707031 C 80.464844 460.507813 101.917969 460.425781 119.574219 452.597656 C 143.0625 442.183594 157.859375 413.039063 178.488281 396.945313 C 193.25 385.421875 212.128906 383.097656 227.996094 390.929688 C 238.480469 396.105469 249.601563 406.21875 258.007813 418.648438 C 251.429688 391.441406 234.59375 361.273438 207.101563 360.226563 C 190.28125 359.585938 174.734375 367.8125 160.074219 382.589844 C 146.734375 396.03125 127.628906 407.902344 99.914063 396.710938 C 89.832031 392.640625 81.425781 384.828125 76.78125 373.851563 C 69.175781 355.902344 72.785156 334.78125 86.746094 320.199219 C 87.359375 322.917969 88.160156 325.628906 89.160156 328.308594 C 94.738281 343.191406 105.414063 354.863281 118.65625 361.550781 C 140.257813 372.457031 163.234375 358.765625 181.5 352.964844 C 195.75 348.441406 212.570313 347.613281 226.347656 353.417969 C 240.425781 359.34375 251.363281 371.617188 258.203125 385.269531 C 264.316406 397.46875 273.296875 414.351563 276.371094 432.582031 C 283.671875 428.296875 285.664063 419.542969 285.980469 411.820313 C 286.230469 405.632813 285.253906 398.765625 283.316406 391.929688 C 276.597656 368.246094 260.601563 342.445313 253.117188 336.640625 C 234.09375 321.875 212.84375 328.207031 194.5 328.207031 C 164.011719 328.207031 138.621094 303.210938 138.621094 273.472656 C 138.621094 243.738281 163.40625 220.167969 193.855469 218.589844 C 199.636719 218.289063 208.65625 218.238281 215.394531 219.464844 C 204.027344 228.589844 196.945313 241.367188 196.945313 255.476563 C 196.945313 270.675781 205.59375 286.546875 220.746094 297.214844 C 239.296875 310.277344 266.179688 327.210938 273.863281 340.363281 C 273.996094 333.421875 274.597656 327.414063 275.589844 322.261719 Z M 280.046875 308.296875 C 264.296875 299.585938 253.195313 279.117188 253.195313 255.355469 C 253.195313 231.59375 264.296875 211.121094 280.046875 202.410156 C 284.222656 217.804688 286.636719 235.953125 286.636719 255.355469 C 286.636719 274.757813 284.21875 292.90625 280.046875 308.296875 Z M 152.15625 539.726563 C 155.050781 543.417969 156.742188 548.058594 156.582031 552.910156 C 156.238281 563.285156 147.554688 570.769531 137.242188 569.570313 C 129.613281 568.683594 123.105469 563.617188 120.890625 556.445313 C 121.9375 556.75 123.027344 556.996094 124.140625 557.167969 C 136.910156 559.167969 149.132813 551.421875 152.15625 539.726563 Z M 183.007813 334.738281 C 174.359375 343.628906 162.675781 349.941406 149.667969 351.734375 C 121.832031 355.570313 98.226563 337.300781 97.117188 311.0625 C 96.292969 291.617188 107.101563 273.113281 125.316406 264.332031 C 124.9375 267.089844 124.734375 269.902344 124.734375 272.761719 C 124.734375 305.519531 150.527344 332.488281 183.007813 334.738281 Z M 144.644531 410.53125 C 142.574219 421.3125 137.039063 431.476563 128.359375 438.753906 C 109.789063 454.320313 83.691406 450.902344 70.265625 431.144531 C 60.316406 416.503906 59.347656 397.320313 68.488281 382.289063 C 69.535156 384.589844 70.738281 386.855469 72.113281 389.0625 C 87.859375 414.355469 119.742188 423.503906 144.644531 410.53125 Z M 138.722656 477.75 C 141.632813 485.53125 141.996094 494.269531 139.128906 502.363281 C 132.996094 519.6875 114.332031 527.664063 97.585938 520.125 C 85.175781 514.539063 76.917969 502.507813 77.011719 489.214844 C 78.621094 490.296875 80.316406 491.289063 82.105469 492.183594 C 102.585938 502.398438 127.359375 495.863281 138.722656 477.75 Z M 143.238281 514.085938 C 146.054688 519.484375 147.109375 525.800781 145.75 531.945313 C 142.847656 545.085938 130 552.566406 117.144531 548.589844 C 107.625 545.648438 100.539063 537.644531 99.414063 527.972656 C 100.679688 528.613281 102.003906 529.183594 103.382813 529.671875 C 119.191406 535.253906 136.609375 528.277344 143.238281 514.085938 Z M 456.550781 477.75 C 467.914063 495.863281 492.6875 502.398438 513.171875 492.183594 C 514.957031 491.289063 516.65625 490.296875 518.265625 489.214844 C 518.359375 502.507813 510.101563 514.539063 497.691406 520.125 C 480.941406 527.664063 462.28125 519.6875 456.144531 502.363281 C 453.277344 494.269531 453.644531 485.53125 456.550781 477.75 Z M 450.632813 410.53125 C 475.535156 423.503906 507.417969 414.355469 523.164063 389.0625 C 524.535156 386.855469 525.738281 384.589844 526.785156 382.289063 C 535.925781 397.320313 534.960938 416.503906 525.011719 431.144531 C 511.585938 450.902344 485.488281 454.320313 466.914063 438.753906 C 458.238281 431.476563 452.703125 421.3125 450.632813 410.53125 Z M 412.265625 334.738281 C 444.746094 332.488281 470.539063 305.519531 470.539063 272.761719 C 470.539063 269.902344 470.339844 267.089844 469.960938 264.332031 C 488.175781 273.113281 498.984375 291.617188 498.160156 311.0625 C 497.050781 337.300781 473.441406 355.570313 445.605469 351.734375 C 432.601563 349.941406 420.914063 343.628906 412.265625 334.738281 Z M 443.117188 539.726563 C 446.144531 551.421875 458.363281 559.167969 471.136719 557.167969 C 472.25 556.996094 473.335938 556.75 474.382813 556.445313 C 472.167969 563.617188 465.664063 568.683594 458.03125 569.570313 C 447.722656 570.769531 439.035156 563.285156 438.695313 552.910156 C 438.535156 548.058594 440.222656 543.417969 443.117188 539.726563 "/>
</g>
</svg>
